<?xml version="1.0" encoding="utf-8"?>
<!-- Generator: Adobe Illustrator 26.2.1, SVG Export Plug-In . SVG Version: 6.00 Build 0)  -->
<svg version="1.1" id="Layer_1" xmlns="http://www.w3.org/2000/svg" xmlns:xlink="http://www.w3.org/1999/xlink" x="0px" y="0px"
	 viewBox="0 0 48 48" style="enable-background:new 0 0 48 48;" xml:space="preserve">
<path d="M13,37.6l11-4.7l11,4.7V8.9l0,0l0,0H13l0,0l0,0V37.6z M10,42.1V8.9c0-0.8,0.3-1.5,0.9-2.1c0.6-0.6,1.3-0.9,2.1-0.9h22
	c0.8,0,1.5,0.3,2.1,0.9C37.7,7.4,38,8.1,38,8.9v33.2l-14-6L10,42.1z M35,8.9H24H13l0,0l0,0H35L35,8.9L35,8.9z"/>
</svg>
