<?xml version="1.0" encoding="utf-8"?>
<!-- Generator: Adobe Illustrator 26.2.1, SVG Export Plug-In . SVG Version: 6.00 Build 0)  -->
<svg fill="#111" version="1.1" id="Layer_1" xmlns="http://www.w3.org/2000/svg" xmlns:xlink="http://www.w3.org/1999/xlink" x="0px" y="0px"
	 viewBox="0 0 48 48" style="enable-background:new 0 0 48 48;" xml:space="preserve">
<path d="M8.7,39.3h2.2l24.2-24.3L34,14l-1.1-1.1L8.7,37.1V39.3z M5.7,42.3v-6.4L35.1,6.5c0.6-0.6,1.3-0.8,2.1-0.8
	c0.8,0,1.6,0.3,2.1,0.9l2.1,2.1c0.6,0.6,0.9,1.3,0.9,2.1s-0.3,1.5-0.9,2.1L12.1,42.3H5.7z M39.2,10.8l-2-2.1L39.2,10.8z M35.1,15.1
	L34,14l-1.1-1.1L35.1,15.1z"/>
</svg>
