<?xml version="1.0" encoding="utf-8"?>
<!-- Generator: Adobe Illustrator 26.2.1, SVG Export Plug-In . SVG Version: 6.00 Build 0)  -->
<svg class="search" version="1.1" id="Layer_1" xmlns="http://www.w3.org/2000/svg" xmlns:xlink="http://www.w3.org/1999/xlink" x="0px" y="0px"
	 viewBox="0 0 48 48" style="enable-background:new 0 0 48 48;" xml:space="preserve">
<path d="M39.8,42L26.6,28.8c-1,0.9-2.2,1.5-3.5,2c-1.3,0.5-2.8,0.7-4.2,0.7c-3.6,0-6.6-1.3-9.1-3.8c-2.5-2.5-3.8-5.5-3.8-9
	s1.2-6.5,3.8-9S15.3,6,18.9,6c3.5,0,6.5,1.2,9,3.8s3.7,5.5,3.7,9c0,1.4-0.2,2.8-0.7,4.1c-0.5,1.3-1.2,2.6-2.1,3.8L42,39.8L39.8,42z
	 M18.9,28.6c2.7,0,5-1,6.9-2.9s2.9-4.2,2.9-6.9s-1-5-2.9-6.9S21.6,9,18.9,9c-2.7,0-5.1,1-7,2.9S9,16.1,9,18.8s1,5,2.9,6.9
	S16.1,28.6,18.9,28.6z"/>
</svg>
