<svg width="188" height="38" viewBox="0 0 188 38" fill="none" xmlns="http://www.w3.org/2000/svg">
<path d="M14.0625 32.4492C15.8333 32.4492 17.4349 32.1888 18.8672 31.668C20.3125 31.1341 21.5495 30.3789 22.5781 29.4023C23.6198 28.4128 24.3945 27.2474 24.9023 25.9062C25.1497 25.3464 25.2734 24.8255 25.2734 24.3438C25.2734 23.888 25.1237 23.5169 24.8242 23.2305C24.5378 22.944 24.1602 22.8008 23.6914 22.8008C23.3138 22.8008 23.0013 22.8919 22.7539 23.0742C22.5065 23.2565 22.2982 23.556 22.1289 23.9727C21.7643 25.1445 21.1914 26.1406 20.4102 26.9609C19.6419 27.7682 18.7109 28.3802 17.6172 28.7969C16.5365 29.2135 15.3451 29.4219 14.043 29.4219C12.168 29.4219 10.5339 28.9531 9.14062 28.0156C7.76042 27.0651 6.6862 25.724 5.91797 23.9922C5.16276 22.2604 4.78516 20.2096 4.78516 17.8398C4.78516 15.5091 5.16276 13.4909 5.91797 11.7852C6.6862 10.0664 7.76042 8.73828 9.14062 7.80078C10.5208 6.86328 12.1549 6.39453 14.043 6.39453C15.2799 6.39453 16.4323 6.62891 17.5 7.09766C18.5807 7.55339 19.5182 8.21745 20.3125 9.08984C21.1068 9.94922 21.6927 10.9779 22.0703 12.1758C22.2526 12.6315 22.4805 12.9701 22.7539 13.1914C23.0404 13.3997 23.3919 13.5039 23.8086 13.5039C24.2643 13.5039 24.6289 13.3672 24.9023 13.0938C25.1888 12.8073 25.332 12.4297 25.332 11.9609C25.332 11.5182 25.2279 11.043 25.0195 10.5352C24.5117 9.08984 23.724 7.83333 22.6562 6.76562C21.5885 5.6849 20.319 4.85156 18.8477 4.26562C17.3763 3.66667 15.7682 3.36719 14.0234 3.36719C11.4323 3.36719 9.17969 3.95964 7.26562 5.14453C5.36458 6.31641 3.89323 7.98958 2.85156 10.1641C1.8099 12.3255 1.28906 14.8841 1.28906 17.8398C1.28906 20.8346 1.8099 23.4258 2.85156 25.6133C3.89323 27.8008 5.36458 29.487 7.26562 30.6719C9.17969 31.8568 11.4453 32.4492 14.0625 32.4492ZM87.8516 32.3516C88.3333 32.3516 88.7305 32.1953 89.043 31.8828C89.3555 31.5703 89.5117 31.1406 89.5117 30.5938V24.3828L91.6797 22.3711L99.2383 31.5508C99.4596 31.8503 99.6745 32.0586 99.8828 32.1758C100.091 32.293 100.352 32.3516 100.664 32.3516C101.107 32.3516 101.471 32.2148 101.758 31.9414C102.057 31.6549 102.207 31.3034 102.207 30.8867C102.207 30.6654 102.174 30.4701 102.109 30.3008C102.044 30.1315 101.927 29.9362 101.758 29.7148L94.1211 20.418L101.25 13.7773C101.471 13.569 101.621 13.3802 101.699 13.2109C101.79 13.0417 101.836 12.8333 101.836 12.5859C101.836 12.1953 101.693 11.8633 101.406 11.5898C101.133 11.3164 100.794 11.1797 100.391 11.1797C100.143 11.1797 99.9219 11.2253 99.7266 11.3164C99.5312 11.4076 99.3294 11.5638 99.1211 11.7852L89.5312 20.8477H89.5117V5.22266C89.5117 4.67578 89.3555 4.24609 89.043 3.93359C88.7305 3.62109 88.3333 3.46484 87.8516 3.46484C87.3698 3.46484 86.9727 3.62109 86.6602 3.93359C86.3477 4.24609 86.1914 4.67578 86.1914 5.22266V30.5938C86.1914 31.1406 86.3477 31.5703 86.6602 31.8828C86.9727 32.1953 87.3698 32.3516 87.8516 32.3516ZM106.953 32H115.996C117.988 32 119.694 31.6875 121.113 31.0625C122.546 30.4245 123.646 29.526 124.414 28.3672C125.182 27.1953 125.566 25.8021 125.566 24.1875C125.566 22.8984 125.28 21.7591 124.707 20.7695C124.147 19.7669 123.366 18.9596 122.363 18.3477C121.374 17.7357 120.228 17.3646 118.926 17.2344V17.0977C119.941 16.9154 120.84 16.5247 121.621 15.9258C122.402 15.3268 123.014 14.5846 123.457 13.6992C123.913 12.8008 124.141 11.8307 124.141 10.7891C124.141 9.38281 123.796 8.15885 123.105 7.11719C122.415 6.07552 121.452 5.26823 120.215 4.69531C118.991 4.10938 117.546 3.81641 115.879 3.81641H106.953C106.432 3.81641 106.016 3.97266 105.703 4.28516C105.391 4.59766 105.234 5.03385 105.234 5.59375V30.2227C105.234 30.7695 105.391 31.2057 105.703 31.5312C106.016 31.8438 106.432 32 106.953 32ZM108.672 16.1602V6.64844H115.098C116.855 6.64844 118.229 7.05208 119.219 7.85938C120.221 8.66667 120.723 9.78646 120.723 11.2188C120.723 12.7812 120.163 13.9987 119.043 14.8711C117.936 15.7305 116.38 16.1602 114.375 16.1602H108.672ZM108.672 29.168V18.8164H115.039C117.305 18.8164 119.043 19.2656 120.254 20.1641C121.465 21.0495 122.07 22.3255 122.07 23.9922C122.07 25.6458 121.491 26.9219 120.332 27.8203C119.173 28.7188 117.513 29.168 115.352 29.168H108.672ZM136.953 32.3711C138.88 32.3711 140.553 31.9414 141.973 31.082C143.392 30.2096 144.499 28.9857 145.293 27.4102C146.087 25.8216 146.484 23.9401 146.484 21.7656C146.484 19.5911 146.087 17.7161 145.293 16.1406C144.499 14.5521 143.385 13.3281 141.953 12.4688C140.534 11.5964 138.867 11.1602 136.953 11.1602C135.052 11.1602 133.385 11.5964 131.953 12.4688C130.521 13.3281 129.408 14.5521 128.613 16.1406C127.819 17.7161 127.422 19.5911 127.422 21.7656C127.422 23.9401 127.819 25.8216 128.613 27.4102C129.408 28.9987 130.514 30.2227 131.934 31.082C133.366 31.9414 135.039 32.3711 136.953 32.3711ZM136.953 29.5977C135.716 29.5977 134.635 29.2917 133.711 28.6797C132.786 28.0547 132.07 27.1562 131.562 25.9844C131.055 24.7995 130.801 23.3932 130.801 21.7656C130.801 20.125 131.055 18.7188 131.562 17.5469C132.07 16.375 132.786 15.4831 133.711 14.8711C134.635 14.2461 135.716 13.9336 136.953 13.9336C138.203 13.9336 139.284 14.2461 140.195 14.8711C141.12 15.4961 141.836 16.3945 142.344 17.5664C142.852 18.7253 143.105 20.125 143.105 21.7656C143.105 23.3932 142.852 24.7995 142.344 25.9844C141.836 27.1562 141.12 28.0547 140.195 28.6797C139.284 29.2917 138.203 29.5977 136.953 29.5977ZM157.891 32.3711C159.818 32.3711 161.491 31.9414 162.91 31.082C164.329 30.2096 165.436 28.9857 166.23 27.4102C167.025 25.8216 167.422 23.9401 167.422 21.7656C167.422 19.5911 167.025 17.7161 166.23 16.1406C165.436 14.5521 164.323 13.3281 162.891 12.4688C161.471 11.5964 159.805 11.1602 157.891 11.1602C155.99 11.1602 154.323 11.5964 152.891 12.4688C151.458 13.3281 150.345 14.5521 149.551 16.1406C148.757 17.7161 148.359 19.5911 148.359 21.7656C148.359 23.9401 148.757 25.8216 149.551 27.4102C150.345 28.9987 151.452 30.2227 152.871 31.082C154.303 31.9414 155.977 32.3711 157.891 32.3711ZM157.891 29.5977C156.654 29.5977 155.573 29.2917 154.648 28.6797C153.724 28.0547 153.008 27.1562 152.5 25.9844C151.992 24.7995 151.738 23.3932 151.738 21.7656C151.738 20.125 151.992 18.7188 152.5 17.5469C153.008 16.375 153.724 15.4831 154.648 14.8711C155.573 14.2461 156.654 13.9336 157.891 13.9336C159.141 13.9336 160.221 14.2461 161.133 14.8711C162.057 15.4961 162.773 16.3945 163.281 17.5664C163.789 18.7253 164.043 20.125 164.043 21.7656C164.043 23.3932 163.789 24.7995 163.281 25.9844C162.773 27.1562 162.057 28.0547 161.133 28.6797C160.221 29.2917 159.141 29.5977 157.891 29.5977ZM171.992 32.3516C172.474 32.3516 172.871 32.1953 173.184 31.8828C173.496 31.5703 173.652 31.1406 173.652 30.5938V24.3828L175.82 22.3711L183.379 31.5508C183.6 31.8503 183.815 32.0586 184.023 32.1758C184.232 32.293 184.492 32.3516 184.805 32.3516C185.247 32.3516 185.612 32.2148 185.898 31.9414C186.198 31.6549 186.348 31.3034 186.348 30.8867C186.348 30.6654 186.315 30.4701 186.25 30.3008C186.185 30.1315 186.068 29.9362 185.898 29.7148L178.262 20.418L185.391 13.7773C185.612 13.569 185.762 13.3802 185.84 13.2109C185.931 13.0417 185.977 12.8333 185.977 12.5859C185.977 12.1953 185.833 11.8633 185.547 11.5898C185.273 11.3164 184.935 11.1797 184.531 11.1797C184.284 11.1797 184.062 11.2253 183.867 11.3164C183.672 11.4076 183.47 11.5638 183.262 11.7852L173.672 20.8477H173.652V5.22266C173.652 4.67578 173.496 4.24609 173.184 3.93359C172.871 3.62109 172.474 3.46484 171.992 3.46484C171.51 3.46484 171.113 3.62109 170.801 3.93359C170.488 4.24609 170.332 4.67578 170.332 5.22266V30.5938C170.332 31.1406 170.488 31.5703 170.801 31.8828C171.113 32.1953 171.51 32.3516 171.992 32.3516Z" fill="#F3654A"/>
<g clip-path="url(#clip0_15_86)">
<path d="M39.3524 9.77866L37.8789 10.3714L36.4769 8.15233L37.3204 7.46984L37.8359 7.8349L37.5215 6.52023L39.5394 6.0678L39.7466 7.12263L40.0796 6.78756L40.2835 9.7138L39.3524 9.77866Z" fill="#CCDB4A"/>
<path d="M41.2145 9.64896L42.756 10.0317L43.8368 7.63965L42.9068 7.08071L42.4469 7.51371L42.5759 6.16816L40.5148 5.99987L40.4559 7.07322L40.0796 6.78757L40.2834 9.71382L41.2145 9.64896Z" fill="#CCDB4A"/>
<path d="M41.9729 33.9661C49.0005 33.4766 54.3007 27.3827 53.8112 20.355C53.3216 13.3274 47.2277 8.02717 40.2001 8.51671C33.1724 9.00625 27.8722 15.1002 28.3617 22.1278C28.8513 29.1555 34.9452 34.4557 41.9729 33.9661Z" fill="#F3654A"/>
<path d="M40.2002 8.51671C47.2054 8.02873 53.3202 13.3054 53.8113 20.355C54.2993 27.3603 49.0226 33.4751 41.973 33.9661" fill="#F3654A"/>
<path d="M41.7906 31.3503C47.3736 30.9614 51.5842 26.1202 51.1953 20.5373C50.8064 14.9543 45.9652 10.7437 40.3823 11.1326C34.7993 11.5215 30.5887 16.3627 30.9776 21.9456C31.3665 27.5286 36.2077 31.7392 41.7906 31.3503Z" fill="#FF794A"/>
<path d="M40.3823 11.1326C45.9688 10.7434 50.8062 14.9508 51.1953 20.5373C51.5845 26.1237 47.3771 30.9611 41.7907 31.3503" fill="#FF794A"/>
<path d="M41.6518 29.3551C46.1328 29.0429 49.5124 25.1573 49.2003 20.6762C48.8881 16.1952 45.0024 12.8156 40.5214 13.1278C36.0403 13.4399 32.6608 17.3256 32.9729 21.8066C33.2851 26.2877 37.1707 29.6672 41.6518 29.3551Z" fill="#B21010"/>
<path d="M40.5212 13.1278C44.9993 12.8158 48.8882 16.1982 49.2001 20.6762C49.512 25.1543 46.1297 29.0432 41.6516 29.3551" fill="#B21010"/>
<path d="M42.2486 12.3392L38.7017 12.5862L39.9062 29.8777L43.4531 29.6306L42.2486 12.3392Z" fill="#FF794A"/>
<path d="M40.4749 12.4627L38.7014 12.5862L39.9059 29.8777L41.6794 29.7541L40.4749 12.4627Z" fill="#FF794A"/>
<path d="M41.3026 24.345C43.0166 24.2256 44.3094 22.7393 44.19 21.0252C44.0706 19.3112 42.5843 18.0184 40.8702 18.1378C39.1561 18.2572 37.8634 19.7436 37.9828 21.4576C38.1022 23.1717 39.5885 24.4644 41.3026 24.345Z" fill="#FF794A"/>
<path d="M40.8704 18.1378C42.5995 18.0174 44.0728 19.3404 44.1901 21.0252C44.3106 22.7544 43.0319 24.2246 41.3028 24.345" fill="#FF794A"/>
<path d="M36.2543 17.7466L37.8648 18.4809L37.2948 16.6939C37.2504 16.697 37.1968 16.5671 37.1463 16.4815C36.8556 16.1453 36.3679 16.1793 36.073 16.4226C35.7368 16.7134 35.7264 17.2041 36.0172 17.5403C36.0677 17.6259 36.1625 17.7084 36.2543 17.7466Z" fill="#FFCD50"/>
<path d="M35.3375 20.5727L37.1522 20.4017L35.7799 19.2498C35.6851 19.1673 35.5933 19.1292 35.5016 19.091C35.0902 18.9415 34.6622 19.194 34.5127 19.6054C34.4075 20.0137 34.6157 20.4447 35.0271 20.5943C35.1127 20.5438 35.2045 20.5819 35.3375 20.5727Z" fill="#FFCD50"/>
<path d="M36.0443 23.6866L37.288 22.3525L35.464 22.3905C35.3753 22.3967 35.2423 22.4059 35.1567 22.4564C34.7669 22.6172 34.5761 23.0761 34.7813 23.4627C34.9421 23.8525 35.4009 24.0433 35.7876 23.8382C35.8763 23.832 35.9618 23.7815 36.0443 23.6866Z" fill="#FFCD50"/>
<path d="M37.9527 26.1377L38.2756 24.3777L36.7856 25.3725C36.7 25.423 36.6175 25.5179 36.535 25.6127C36.2937 25.986 36.4164 26.4675 36.7422 26.6676C37.1154 26.9089 37.5969 26.7862 37.797 26.4604C37.9238 26.3625 37.9589 26.2264 37.9527 26.1377Z" fill="#FFCD50"/>
<path d="M45.3877 17.1103L43.8946 18.0608L44.2114 16.2121C44.2557 16.209 44.2908 16.0729 44.3289 15.9812C44.5703 15.608 45.058 15.574 45.3838 15.774C45.757 16.0154 45.8353 16.5 45.594 16.8732C45.5558 16.965 45.4733 17.0598 45.3877 17.1103Z" fill="#FFCD50"/>
<path d="M46.6877 19.782L44.8668 19.8643L46.0661 18.5333C46.1486 18.4384 46.2342 18.3879 46.3198 18.3374C46.7065 18.1323 47.1653 18.3231 47.3704 18.7098C47.5312 19.0995 47.3848 19.5552 46.9981 19.7604C46.9063 19.7222 46.8207 19.7727 46.6877 19.782Z" fill="#FFCD50"/>
<path d="M46.4191 22.9639L45.0025 21.8151L46.8142 21.5998C46.9028 21.5937 47.0358 21.5844 47.1276 21.6225C47.5359 21.7278 47.7885 22.1557 47.6389 22.5671C47.5337 22.9754 47.1058 23.2279 46.6944 23.0784C46.6057 23.0846 46.514 23.0464 46.4191 22.9639Z" fill="#FFCD50"/>
<path d="M44.8692 25.6559L44.3054 23.9577L45.919 24.7363C46.0107 24.7745 46.1056 24.857 46.2005 24.9395C46.4912 25.2756 46.4365 25.7695 46.1416 26.0128C45.8054 26.3035 45.3115 26.2488 45.0682 25.9539C44.929 25.8745 44.8754 25.7446 44.8692 25.6559Z" fill="#FFCD50"/>
</g>
<g clip-path="url(#clip1_15_86)">
<path d="M65.4296 10.2818L64.0966 11.1451L62.2964 9.23484L62.9939 8.40376L63.5697 8.66359L63.0099 7.43321L64.9042 6.60356L65.3091 7.59937L65.572 7.20683L66.3312 10.0402L65.4296 10.2818Z" fill="#CCDB4A"/>
<path d="M67.2327 9.79865L68.8189 9.87977L69.4228 7.32533L68.4031 6.95437L68.0344 7.46727L67.904 6.12186L65.8487 6.35049L65.996 7.41532L65.572 7.20683L66.3312 10.0402L67.2327 9.79865Z" fill="#CCDB4A"/>
<path d="M72.6234 33.523C79.428 31.6997 83.4662 24.7053 81.6429 17.9007C79.8196 11.096 72.8253 7.05781 66.0206 8.88111C59.216 10.7044 55.1778 17.6988 57.0011 24.5034C58.8244 31.3081 65.8187 35.3463 72.6234 33.523Z" fill="#F3654A"/>
<path d="M66.0208 8.8811C72.8037 7.06362 79.8141 11.0748 81.6431 17.9006C83.4605 24.6836 79.4494 31.694 72.6235 33.5229" fill="#F3654A"/>
<path d="M71.9448 30.9901C77.3506 29.5416 80.5586 23.9851 79.1102 18.5793C77.6617 13.1735 72.1052 9.96551 66.6994 11.414C61.2936 12.8625 58.0856 18.4189 59.5341 23.8247C60.9826 29.2305 66.539 32.4386 71.9448 30.9901Z" fill="#FF794A"/>
<path d="M66.6992 11.414C72.1084 9.9646 77.6606 13.1701 79.11 18.5793C80.5594 23.9885 77.3538 29.5407 71.9446 30.9901" fill="#FF794A"/>
<path d="M71.4272 29.0582C75.766 27.8956 78.3409 23.4358 77.1783 19.097C76.0157 14.7581 71.5559 12.1832 67.217 13.3458C62.8782 14.5084 60.3033 18.9682 61.4659 23.3071C62.6285 27.646 67.0883 30.2208 71.4272 29.0582Z" fill="#B21010"/>
<path d="M67.217 13.3458C71.553 12.184 76.0165 14.761 77.1783 19.097C78.3401 23.4329 75.7631 27.8964 71.4272 29.0582" fill="#B21010"/>
<path d="M68.7616 12.2418L65.3271 13.162L69.8133 29.9047L73.2477 28.9845L68.7616 12.2418Z" fill="#FF794A"/>
<path d="M67.0444 12.7019L65.3271 13.162L69.8133 29.9047L71.5305 29.4446L67.0444 12.7019Z" fill="#FF794A"/>
<path d="M70.1273 24.2071C71.7869 23.7624 72.7718 22.0565 72.3271 20.3968C71.8824 18.7371 70.1765 17.7522 68.5168 18.1969C66.8571 18.6416 65.8722 20.3476 66.3169 22.0072C66.7616 23.6669 68.4676 24.6518 70.1273 24.2071Z" fill="#FF794A"/>
<path d="M68.5168 18.1969C70.1911 17.7483 71.89 18.7655 72.3272 20.3968C72.7758 22.0711 71.8015 23.7585 70.1273 24.2071" fill="#FF794A"/>
<path d="M63.9109 18.6949L65.632 19.1079L64.7311 17.4628C64.6882 17.4743 64.6107 17.357 64.5448 17.2827C64.1952 17.0083 63.7229 17.1348 63.4799 17.43C63.2055 17.7796 63.2891 18.2633 63.6387 18.5377C63.7047 18.6121 63.8135 18.6749 63.9109 18.6949Z" fill="#FFCD50"/>
<path d="M63.5508 21.6441L65.2994 21.1295L63.7324 20.2611C63.6235 20.1982 63.5261 20.1783 63.4288 20.1584C62.9964 20.0902 62.6246 20.4199 62.5564 20.8523C62.5311 21.2731 62.8179 21.6564 63.2503 21.7246C63.3246 21.6587 63.422 21.6786 63.5508 21.6441Z" fill="#FFCD50"/>
<path d="M64.8399 24.5656L65.8057 23.0185L64.0226 23.4042C63.9367 23.4272 63.8079 23.4617 63.7336 23.5277C63.3817 23.76 63.2821 24.2468 63.5573 24.5872C63.7896 24.939 64.2765 25.0386 64.6168 24.7634C64.7027 24.7404 64.777 24.6745 64.8399 24.5656Z" fill="#FFCD50"/>
<path d="M67.1812 26.6069L67.1619 24.8176L65.8894 26.0788C65.8151 26.1448 65.7522 26.2536 65.6894 26.3625C65.5238 26.775 65.7362 27.2242 66.0942 27.3583C66.5067 27.5239 66.9559 27.3115 67.09 26.9534C67.1958 26.8331 67.2042 26.6928 67.1812 26.6069Z" fill="#FFCD50"/>
<path d="M72.7544 16.3252L71.4704 17.5435L71.4281 15.6683C71.471 15.6568 71.4794 15.5166 71.4994 15.4192C71.6649 15.0067 72.1371 14.8802 72.4952 15.0143C72.9076 15.1799 73.0771 15.6406 72.9115 16.0531C72.8916 16.1504 72.8288 16.2593 72.7544 16.3252Z" fill="#FFCD50"/>
<path d="M74.541 18.6993L72.7694 19.128L73.6923 17.5924C73.7551 17.4835 73.8295 17.4176 73.9038 17.3516C74.2442 17.0764 74.731 17.176 75.0063 17.5164C75.2386 17.8682 75.1819 18.3435 74.8415 18.6188C74.7442 18.5989 74.6698 18.6648 74.541 18.6993Z" fill="#FFCD50"/>
<path d="M74.8854 21.8739L73.2754 21.0169L75.0126 20.4595C75.0984 20.4364 75.2272 20.4019 75.3246 20.4219C75.7455 20.4471 76.0751 20.8189 76.007 21.2513C75.9817 21.6722 75.6099 22.0018 75.1775 21.9337C75.0917 21.9567 74.9943 21.9367 74.8854 21.8739Z" fill="#FFCD50"/>
<path d="M73.8784 24.8124L73.0005 23.2532L74.7331 23.7092C74.8305 23.7291 74.9393 23.792 75.0482 23.8548C75.3978 24.1293 75.4385 24.6245 75.1955 24.9197C74.9211 25.2693 74.4258 25.3099 74.1307 25.0669C73.9789 25.0156 73.9014 24.8983 73.8784 24.8124Z" fill="#FFCD50"/>
</g>
<defs>
<clipPath id="clip0_15_86">
<rect width="28" height="28" fill="white" transform="translate(26.061 7.00671) rotate(-3.98476)"/>
</clipPath>
<clipPath id="clip1_15_86">
<rect width="28" height="28" fill="white" transform="translate(51.8535 10.1005) rotate(-15)"/>
</clipPath>
</defs>
</svg>
